# xmcd
#
# Track frame offsets: 
#        150
#        21026
#        37683
#        55312
#        68097
#        84641
#        97956
#        113852
#        131618
#        149825
#        178457
#
# Disc length: 2582 seconds
#
# Revision: 1
# Processed by: cddbd v1.5.2PL0 Copyright (c) Steve Scherf et al.
# Submitted via: ExactAudioCopy v1.0b3
#
DISCID=990a140b
DTITLE=山口百恵 - ドラマチック (初回生産限定盤 紙ジャケット仕様) SACD HYBRID Disc 1 MHCL-1039-4
DTITLE=0
DYEAR=2004
DGENRE=JPop
TTITLE0=サンタマリアの熱い風
TTITLE1=幻へようこそ
TTITLE2=蜃気楼
TTITLE3=絶体絶命
TTITLE4=水鏡
TTITLE5=ヒ・ロ・イ・ン
TTITLE6=空蝉
TTITLE7=霧雨楼
TTITLE8=或る女…或る日
TTITLE9=プレイバック part 2
TTITLE10=ラスト・ソング
EXTD=YEAR: 2003
EXTT0=
EXTT1=
EXTT2=
EXTT3=
EXTT4=
EXTT5=
EXTT6=
EXTT7=
EXTT8=
EXTT9=
EXTT10=
PLAYORDER=
